<?xml version="1.0" encoding="utf-8"?>
<!-- Generator: Adobe Illustrator 19.2.0, SVG Export Plug-In . SVG Version: 6.00 Build 0)  -->
<svg version="1.1" id="Layer_1" xmlns="http://www.w3.org/2000/svg" xmlns:xlink="http://www.w3.org/1999/xlink" x="0px" y="0px"
	 viewBox="0 0 163.1 116" style="enable-background:new 0 0 163.1 116;" xml:space="preserve">
<style type="text/css">
	.st0{fill:#EB3628;}
	.st1{clip-path:url(#SVGID_2_);}
	.st2{fill:none;stroke:#292929;stroke-miterlimit:10;}
	.st3{clip-path:url(#SVGID_4_);}
	.st4{clip-path:url(#SVGID_6_);}
	.st5{clip-path:url(#SVGID_8_);}
	.st6{clip-path:url(#SVGID_10_);}
	.st7{clip-path:url(#SVGID_12_);}
	.st8{clip-path:url(#SVGID_14_);}
	.st9{clip-path:url(#SVGID_16_);}
</style>
<g>
	<g>
		<path class="st0" d="M4.2,57.3c0,0-3.5,34.5-3.9,38.9c-0.4,4.4-0.3,10.2,0.6,13.1c0.9,2.9,1.9,6.7,1.9,6.7l24.4-7.4l-1.5-4.5
			l-19.8,6.3c0,0-1.3-3.6-1.2-8c0.1-4.4,4.7-44.5,4.7-44.5L4.2,57.3z"/>
	</g>
	<g>
		<defs>
			<polygon id="SVGID_1_" points="28,48.7 32.5,4.2 10.1,0 5.5,46.4 19.2,47.7 20,42.9 12.3,41.9 12.2,43.5 10.9,43.5 14.8,5.2 
				27.3,7.1 22.9,48.3 			"/>
		</defs>
		<clipPath id="SVGID_2_">
			<use xlink:href="#SVGID_1_"  style="overflow:visible;"/>
		</clipPath>
		<g class="st1">
			<line class="st2" x1="43.6" y1="-32.7" x2="-9.8" y2="20.8"/>
			<line class="st2" x1="43.6" y1="-28.8" x2="-9.8" y2="24.6"/>
			<line class="st2" x1="43.6" y1="-25" x2="-9.8" y2="28.4"/>
			<line class="st2" x1="43.6" y1="-21.1" x2="-9.8" y2="32.3"/>
			<line class="st2" x1="43.6" y1="-17.3" x2="-9.8" y2="36.1"/>
			<line class="st2" x1="43.6" y1="-13.4" x2="-9.8" y2="40"/>
			<line class="st2" x1="43.6" y1="-9.6" x2="-9.8" y2="43.8"/>
			<line class="st2" x1="43.6" y1="-5.7" x2="-9.8" y2="47.7"/>
			<line class="st2" x1="43.6" y1="-1.9" x2="-9.8" y2="51.5"/>
			<line class="st2" x1="43.6" y1="1.9" x2="-9.8" y2="55.4"/>
			<line class="st2" x1="43.6" y1="5.8" x2="-9.8" y2="59.2"/>
			<line class="st2" x1="43.6" y1="9.6" x2="-9.8" y2="63.1"/>
			<line class="st2" x1="43.6" y1="13.5" x2="-9.8" y2="66.9"/>
			<line class="st2" x1="43.6" y1="17.3" x2="-9.8" y2="70.7"/>
			<line class="st2" x1="43.6" y1="21.2" x2="-9.8" y2="74.6"/>
			<line class="st2" x1="43.6" y1="25" x2="-9.8" y2="78.4"/>
			<line class="st2" x1="43.6" y1="28.9" x2="-9.8" y2="82.3"/>
			<line class="st2" x1="43.6" y1="32.7" x2="-9.8" y2="86.1"/>
		</g>
	</g>
	<g>
		<defs>
			<polygon id="SVGID_3_" points="58.6,51.8 63.1,9.7 40.5,5.7 36.2,49.6 50.1,51.1 50.4,45.7 43.5,45.1 43.3,46.7 41.4,46.4 
				45.1,10.9 57.7,12.8 53.6,51.4 			"/>
		</defs>
		<clipPath id="SVGID_4_">
			<use xlink:href="#SVGID_3_"  style="overflow:visible;"/>
		</clipPath>
		<g class="st3">
			<line class="st2" x1="78.6" y1="-33.8" x2="25.2" y2="19.6"/>
			<line class="st2" x1="78.6" y1="-30" x2="25.2" y2="23.5"/>
			<line class="st2" x1="78.6" y1="-26.1" x2="25.2" y2="27.3"/>
			<line class="st2" x1="78.6" y1="-22.3" x2="25.2" y2="31.1"/>
			<line class="st2" x1="78.6" y1="-18.4" x2="25.2" y2="35"/>
			<line class="st2" x1="78.6" y1="-14.6" x2="25.2" y2="38.8"/>
			<line class="st2" x1="78.6" y1="-10.7" x2="25.2" y2="42.7"/>
			<line class="st2" x1="78.6" y1="-6.9" x2="25.2" y2="46.5"/>
			<line class="st2" x1="78.6" y1="-3" x2="25.2" y2="50.4"/>
			<line class="st2" x1="78.6" y1="0.8" x2="25.2" y2="54.2"/>
			<line class="st2" x1="78.6" y1="4.6" x2="25.2" y2="58.1"/>
			<line class="st2" x1="78.6" y1="8.5" x2="25.2" y2="61.9"/>
			<line class="st2" x1="78.6" y1="12.3" x2="25.2" y2="65.8"/>
			<line class="st2" x1="78.6" y1="16.2" x2="25.2" y2="69.6"/>
			<line class="st2" x1="78.6" y1="20" x2="25.2" y2="73.4"/>
			<line class="st2" x1="78.6" y1="23.9" x2="25.2" y2="77.3"/>
			<line class="st2" x1="78.6" y1="27.7" x2="25.2" y2="81.1"/>
			<line class="st2" x1="78.6" y1="31.6" x2="25.2" y2="85"/>
		</g>
	</g>
	<g>
		<defs>
			<path id="SVGID_5_" d="M107.5,14.9l-2.6,24.5l21.2,2l2.2-23.8L107.5,14.9z M120.2,36.8l-8.8-0.8l1.2-13.8l9.1,1.3L120.2,36.8z"/>
		</defs>
		<clipPath id="SVGID_6_">
			<use xlink:href="#SVGID_5_"  style="overflow:visible;"/>
		</clipPath>
		<g class="st4">
			<line class="st2" x1="150.3" y1="-35" x2="96.9" y2="18.4"/>
			<line class="st2" x1="150.3" y1="-31.2" x2="96.9" y2="22.2"/>
			<line class="st2" x1="150.3" y1="-27.3" x2="96.9" y2="26.1"/>
			<line class="st2" x1="150.3" y1="-23.5" x2="96.9" y2="29.9"/>
			<line class="st2" x1="150.3" y1="-19.6" x2="96.9" y2="33.8"/>
			<line class="st2" x1="150.3" y1="-15.8" x2="96.9" y2="37.6"/>
			<line class="st2" x1="150.3" y1="-11.9" x2="96.9" y2="41.5"/>
			<line class="st2" x1="150.3" y1="-8.1" x2="96.9" y2="45.3"/>
			<line class="st2" x1="150.3" y1="-4.3" x2="96.9" y2="49.2"/>
			<line class="st2" x1="150.3" y1="-0.4" x2="96.9" y2="53"/>
			<line class="st2" x1="150.3" y1="3.4" x2="96.9" y2="56.8"/>
			<line class="st2" x1="150.3" y1="7.3" x2="96.9" y2="60.7"/>
			<line class="st2" x1="150.3" y1="11.1" x2="96.9" y2="64.5"/>
			<line class="st2" x1="150.3" y1="15" x2="96.9" y2="68.4"/>
			<line class="st2" x1="150.3" y1="18.8" x2="96.9" y2="72.2"/>
			<line class="st2" x1="150.3" y1="22.7" x2="96.9" y2="76.1"/>
			<line class="st2" x1="150.3" y1="26.5" x2="96.9" y2="79.9"/>
			<line class="st2" x1="150.3" y1="30.4" x2="96.9" y2="83.8"/>
		</g>
	</g>
	<polygon class="st0" points="18.4,92.1 23.5,92.7 26.9,59.5 13.8,58.3 13.3,61.8 21.5,62.7 	"/>
	<g>
		<defs>
			<polygon id="SVGID_7_" points="36.9,87.9 31.8,87.3 35,60.2 48,61.8 47.8,65.6 39.2,64.6 			"/>
		</defs>
		<clipPath id="SVGID_8_">
			<use xlink:href="#SVGID_7_"  style="overflow:visible;"/>
		</clipPath>
		<g class="st5">
			<line class="st2" x1="71" y1="24.4" x2="17.6" y2="77.8"/>
			<line class="st2" x1="71" y1="28.2" x2="17.6" y2="81.6"/>
			<line class="st2" x1="71" y1="32.1" x2="17.6" y2="85.5"/>
			<line class="st2" x1="71" y1="35.9" x2="17.6" y2="89.3"/>
			<line class="st2" x1="71" y1="39.8" x2="17.6" y2="93.2"/>
			<line class="st2" x1="71" y1="43.6" x2="17.6" y2="97"/>
			<line class="st2" x1="71" y1="47.4" x2="17.6" y2="100.9"/>
			<line class="st2" x1="71" y1="51.3" x2="17.6" y2="104.7"/>
			<line class="st2" x1="71" y1="55.1" x2="17.6" y2="108.5"/>
			<line class="st2" x1="71" y1="59" x2="17.6" y2="112.4"/>
			<line class="st2" x1="71" y1="62.8" x2="17.6" y2="116.2"/>
			<line class="st2" x1="71" y1="66.7" x2="17.6" y2="120.1"/>
			<line class="st2" x1="71" y1="70.5" x2="17.6" y2="123.9"/>
			<line class="st2" x1="71" y1="74.4" x2="17.6" y2="127.8"/>
			<line class="st2" x1="71" y1="78.2" x2="17.6" y2="131.6"/>
			<line class="st2" x1="71" y1="82.1" x2="17.6" y2="135.5"/>
			<line class="st2" x1="71" y1="85.9" x2="17.6" y2="139.3"/>
			<line class="st2" x1="71" y1="89.7" x2="17.6" y2="143.2"/>
		</g>
	</g>
	<g>
		<defs>
			<path id="SVGID_9_" d="M109,70.9l-2.9-0.3c0,0-3.8-0.3-3.5-3.9c0.3-3.6,4-3.9,4-3.9l4.3,0.2l0-1.2l19.7,1.8l-0.9,10.9l-20.9-1.9
				L109,70.9z"/>
		</defs>
		<clipPath id="SVGID_10_">
			<use xlink:href="#SVGID_9_"  style="overflow:visible;"/>
		</clipPath>
		<g class="st6">
			<line class="st2" x1="150.3" y1="1" x2="96.9" y2="54.4"/>
			<line class="st2" x1="150.3" y1="4.9" x2="96.9" y2="58.3"/>
			<line class="st2" x1="150.3" y1="8.7" x2="96.9" y2="62.1"/>
			<line class="st2" x1="150.3" y1="12.6" x2="96.9" y2="66"/>
			<line class="st2" x1="150.3" y1="16.4" x2="96.9" y2="69.8"/>
			<line class="st2" x1="150.3" y1="20.3" x2="96.9" y2="73.7"/>
			<line class="st2" x1="150.3" y1="24.1" x2="96.9" y2="77.5"/>
			<line class="st2" x1="150.3" y1="27.9" x2="96.9" y2="81.4"/>
			<line class="st2" x1="150.3" y1="31.8" x2="96.9" y2="85.2"/>
			<line class="st2" x1="150.3" y1="35.6" x2="96.9" y2="89"/>
			<line class="st2" x1="150.3" y1="39.5" x2="96.9" y2="92.9"/>
			<line class="st2" x1="150.3" y1="43.3" x2="96.9" y2="96.7"/>
			<line class="st2" x1="150.3" y1="47.2" x2="96.9" y2="100.6"/>
			<line class="st2" x1="150.3" y1="51" x2="96.9" y2="104.4"/>
			<line class="st2" x1="150.3" y1="54.9" x2="96.9" y2="108.3"/>
			<line class="st2" x1="150.3" y1="58.7" x2="96.9" y2="112.1"/>
			<line class="st2" x1="150.3" y1="62.6" x2="96.9" y2="116"/>
			<line class="st2" x1="150.3" y1="66.4" x2="96.9" y2="119.8"/>
		</g>
	</g>
	<g>
		<defs>
			<path id="SVGID_11_" d="M141.5,74.9l-2.9-0.3c0,0-3.8-0.3-3.5-3.9c0.3-3.6,4-3.9,4-3.9l4.3,0.2l0-1.2l19.7,1.8l-0.9,10.9
				l-20.9-1.9L141.5,74.9z"/>
		</defs>
		<clipPath id="SVGID_12_">
			<use xlink:href="#SVGID_11_"  style="overflow:visible;"/>
		</clipPath>
		<g class="st7">
			<line class="st2" x1="181.8" y1="-4.1" x2="128.4" y2="49.4"/>
			<line class="st2" x1="181.8" y1="-0.2" x2="128.4" y2="53.2"/>
			<line class="st2" x1="181.8" y1="3.6" x2="128.4" y2="57"/>
			<line class="st2" x1="181.8" y1="7.5" x2="128.4" y2="60.9"/>
			<line class="st2" x1="181.8" y1="11.3" x2="128.4" y2="64.7"/>
			<line class="st2" x1="181.8" y1="15.2" x2="128.4" y2="68.6"/>
			<line class="st2" x1="181.8" y1="19" x2="128.4" y2="72.4"/>
			<line class="st2" x1="181.8" y1="22.9" x2="128.4" y2="76.3"/>
			<line class="st2" x1="181.8" y1="26.7" x2="128.4" y2="80.1"/>
			<line class="st2" x1="181.8" y1="30.5" x2="128.4" y2="84"/>
			<line class="st2" x1="181.8" y1="34.4" x2="128.4" y2="87.8"/>
			<line class="st2" x1="181.8" y1="38.2" x2="128.4" y2="91.7"/>
			<line class="st2" x1="181.8" y1="42.1" x2="128.4" y2="95.5"/>
			<line class="st2" x1="181.8" y1="45.9" x2="128.4" y2="99.3"/>
			<line class="st2" x1="181.8" y1="49.8" x2="128.4" y2="103.2"/>
			<line class="st2" x1="181.8" y1="53.6" x2="128.4" y2="107"/>
			<line class="st2" x1="181.8" y1="57.5" x2="128.4" y2="110.9"/>
			<line class="st2" x1="181.8" y1="61.3" x2="128.4" y2="114.7"/>
		</g>
	</g>
	<g>
		<defs>
			<polygon id="SVGID_13_" points="31.2,95.6 30.4,107.7 70.1,94.9 73.4,64.6 52.5,62.3 50.9,80.2 55.5,80.6 57.1,66.4 67.8,67.5 
				65.9,91.5 54.1,95 54.5,89.8 49.7,89.5 49.1,96.6 35.9,101 36.2,95.7 			"/>
		</defs>
		<clipPath id="SVGID_14_">
			<use xlink:href="#SVGID_13_"  style="overflow:visible;"/>
		</clipPath>
		<g class="st8">
			<line class="st2" x1="80.3" y1="28.5" x2="26.9" y2="81.9"/>
			<line class="st2" x1="80.3" y1="32.3" x2="26.9" y2="85.8"/>
			<line class="st2" x1="80.3" y1="36.2" x2="26.9" y2="89.6"/>
			<line class="st2" x1="80.3" y1="40" x2="26.9" y2="93.4"/>
			<line class="st2" x1="80.3" y1="43.9" x2="26.9" y2="97.3"/>
			<line class="st2" x1="80.3" y1="47.7" x2="26.9" y2="101.1"/>
			<line class="st2" x1="80.3" y1="51.6" x2="26.9" y2="105"/>
			<line class="st2" x1="80.3" y1="55.4" x2="26.9" y2="108.8"/>
			<line class="st2" x1="80.3" y1="59.3" x2="26.9" y2="112.7"/>
			<line class="st2" x1="80.3" y1="63.1" x2="26.9" y2="116.5"/>
			<line class="st2" x1="80.3" y1="66.9" x2="26.9" y2="120.4"/>
			<line class="st2" x1="80.3" y1="70.8" x2="26.9" y2="124.2"/>
			<line class="st2" x1="80.3" y1="74.6" x2="26.9" y2="128.1"/>
			<line class="st2" x1="80.3" y1="78.5" x2="26.9" y2="131.9"/>
			<line class="st2" x1="80.3" y1="82.3" x2="26.9" y2="135.7"/>
			<line class="st2" x1="80.3" y1="86.2" x2="26.9" y2="139.6"/>
			<line class="st2" x1="80.3" y1="90" x2="26.9" y2="143.4"/>
			<line class="st2" x1="80.3" y1="93.9" x2="26.9" y2="147.3"/>
		</g>
	</g>
	<g>
		<defs>
			<polygon id="SVGID_15_" points="71.3,12.3 91.7,14.7 90.1,29.6 69.6,27.4 70.3,21 86.7,23.1 87.2,18 71,16.4 			"/>
		</defs>
		<clipPath id="SVGID_16_">
			<use xlink:href="#SVGID_15_"  style="overflow:visible;"/>
		</clipPath>
		<g class="st9">
			<line class="st2" x1="111.4" y1="-50.5" x2="58" y2="2.9"/>
			<line class="st2" x1="111.4" y1="-46.7" x2="58" y2="6.8"/>
			<line class="st2" x1="111.4" y1="-42.8" x2="58" y2="10.6"/>
			<line class="st2" x1="111.4" y1="-39" x2="58" y2="14.5"/>
			<line class="st2" x1="111.4" y1="-35.1" x2="58" y2="18.3"/>
			<line class="st2" x1="111.4" y1="-31.3" x2="58" y2="22.1"/>
			<line class="st2" x1="111.4" y1="-27.4" x2="58" y2="26"/>
			<line class="st2" x1="111.4" y1="-23.6" x2="58" y2="29.8"/>
			<line class="st2" x1="111.4" y1="-19.7" x2="58" y2="33.7"/>
			<line class="st2" x1="111.4" y1="-15.9" x2="58" y2="37.5"/>
			<line class="st2" x1="111.4" y1="-12" x2="58" y2="41.4"/>
			<line class="st2" x1="111.4" y1="-8.2" x2="58" y2="45.2"/>
			<line class="st2" x1="111.4" y1="-4.4" x2="58" y2="49.1"/>
			<line class="st2" x1="111.4" y1="-0.5" x2="58" y2="52.9"/>
			<line class="st2" x1="111.4" y1="3.3" x2="58" y2="56.7"/>
			<line class="st2" x1="111.4" y1="7.2" x2="58" y2="60.6"/>
			<line class="st2" x1="111.4" y1="11" x2="58" y2="64.4"/>
			<line class="st2" x1="111.4" y1="14.9" x2="58" y2="68.3"/>
		</g>
	</g>
</g>
</svg>
