<?xml version="1.0" encoding="utf-8"?>
<!-- Generator: Adobe Illustrator 19.2.0, SVG Export Plug-In . SVG Version: 6.00 Build 0)  -->
<svg version="1.1" id="Layer_1" xmlns="http://www.w3.org/2000/svg" xmlns:xlink="http://www.w3.org/1999/xlink" x="0px" y="0px"
	 viewBox="0 0 33 38" style="enable-background:new 0 0 33 38;" xml:space="preserve">
<style type="text/css">
	.st0{fill:none;stroke:#404040;stroke-miterlimit:10;}
</style>
<g>
	<path class="st0" d="M16.5,0.5c-8.8,0-16,7.2-16,16c0,8.8,7.2,16,16,16c8.8,0,16-7.2,16-16C32.5,7.7,25.3,0.5,16.5,0.5z M16.8,27
		C11,27,6.3,22.3,6.3,16.5C6.3,10.7,11,6,16.8,6c5.8,0,10.5,4.7,10.5,10.5C27.3,22.3,22.6,27,16.8,27z"/>
	<circle class="st0" cx="16.8" cy="16.5" r="2.9"/>
	<path class="st0" d="M25.2,37.5H8.4c0-2.8,3.8-5,8.4-5S25.2,34.7,25.2,37.5z"/>
</g>
</svg>
