<?xml version="1.0" encoding="utf-8"?>
<!-- Generator: Adobe Illustrator 19.2.0, SVG Export Plug-In . SVG Version: 6.00 Build 0)  -->
<svg version="1.1" id="Layer_1" xmlns="http://www.w3.org/2000/svg" xmlns:xlink="http://www.w3.org/1999/xlink" x="0px" y="0px"
	 viewBox="0 0 27.8 32" style="enable-background:new 0 0 27.8 32;" xml:space="preserve">
<style type="text/css">
	.st0{fill:none;stroke:#404040;stroke-miterlimit:10;}
</style>
<g>
	<path class="st0" d="M13.9,0.5c-7.4,0-13.4,6-13.4,13.4c0,7.4,6,13.4,13.4,13.4c7.4,0,13.4-6,13.4-13.4C27.3,6.5,21.3,0.5,13.9,0.5
		z M14.2,22.7c-4.9,0-8.8-3.9-8.8-8.8c0-4.9,3.9-8.8,8.8-8.8C19,5.1,23,9,23,13.9C23,18.8,19,22.7,14.2,22.7z"/>
	<circle class="st0" cx="14.2" cy="13.9" r="2.5"/>
	<path class="st0" d="M21.2,31.5H7.1c0-2.3,3.2-4.2,7-4.2S21.2,29.2,21.2,31.5z"/>
</g>
</svg>
